<?xml version="1.0" encoding="utf-8"?>
<!-- Generator: Adobe Illustrator 26.1.0, SVG Export Plug-In . SVG Version: 6.00 Build 0)  -->
<svg version="1.1" id="Layer_1" xmlns="http://www.w3.org/2000/svg" xmlns:xlink="http://www.w3.org/1999/xlink" x="0px" y="0px"
	 viewBox="0 0 512 512" style="enable-background:new 0 0 512 512;" xml:space="preserve">
<style type="text/css">
	.st0{fill:#F4F4F4;}
	.st1{fill:#111111;}
</style>
<circle class="st0" cx="256" cy="256" r="246.5"/>
<path class="st1" d="M424.5,349.9l-105-163.3c-2.5-3.7-6.6-5.9-11.2-6c-4.5,0-8.7,2.4-11.1,6.2L239,280.1c-3.9,6.2-2,14.3,4.2,18.1
	c6.2,3.9,14.3,2,18.1-4.2l47.3-75.8l80.8,125.6H122.3l107.5-172.1l18,28.9c3.8,6.2,11.8,8.2,18,4.4c6.2-3.8,8.2-11.8,4.4-18
	c-0.1-0.1-0.2-0.2-0.2-0.3l-29.2-46.7c-3.9-6.2-12-8-18-4.2c-1.7,1.1-3.1,2.5-4.2,4.2L87.4,350.1c-3.9,6.2-2,14.3,4.2,18
	c2.1,1.3,4.5,2,7,2h314.9c7.2,0,13.1-5.9,13.1-13.1C426.6,354.5,425.9,352,424.5,349.9L424.5,349.9z"/>
</svg>
