<?xml version="1.0" encoding="utf-8"?>
<!-- Generator: Adobe Illustrator 26.1.0, SVG Export Plug-In . SVG Version: 6.00 Build 0)  -->
<svg version="1.1" id="Layer_1" xmlns="http://www.w3.org/2000/svg" xmlns:xlink="http://www.w3.org/1999/xlink" x="0px" y="0px"
	 viewBox="0 0 512 512" style="enable-background:new 0 0 512 512;" xml:space="preserve">
<style type="text/css">
	.st0{fill:#F9F9F9;}
</style>
<path class="st0" d="M461.5,375.3l-128-199.1c-3.1-4.5-8.1-7.2-13.6-7.3c-5.5,0-10.6,2.9-13.5,7.5l-71.1,113.8
	c-4.7,7.5-2.4,17.4,5.1,22.1c7.5,4.7,17.4,2.4,22.1-5.1l57.7-92.4L418.7,368H92.9L224,158.2l22,35.2c4.6,7.6,14.4,10,22,5.4
	c7.6-4.6,10-14.4,5.4-22c-0.1-0.1-0.2-0.3-0.3-0.4l-35.6-56.9c-4.7-7.5-14.6-9.8-22-5.1c-2.1,1.3-3.8,3-5.1,5.1l-160,256
	c-4.7,7.5-2.4,17.4,5.1,22c2.5,1.6,5.5,2.4,8.5,2.4h384c8.8,0,16-7.2,16-16C464,380.9,463.1,377.9,461.5,375.3L461.5,375.3z"/>
</svg>
